<svg xmlns="http://www.w3.org/2000/svg" width="512" height="512" viewBox="0 0 512 512" role="img" aria-label="AetherMail">
  <rect width="512" height="512" rx="112" fill="#101820"/>
  <path d="M112 160h288a38 38 0 0 1 38 38v186a38 38 0 0 1-38 38H112a38 38 0 0 1-38-38V198a38 38 0 0 1 38-38Z" fill="#f7f3ec"/>
  <path d="m90 200 166 128 166-128" fill="none" stroke="#101820" stroke-width="28" stroke-linecap="round" stroke-linejoin="round"/>
  <path d="M326 94c14 40 34 60 74 74-40 14-60 34-74 74-14-40-34-60-74-74 40-14 60-34 74-74Z" fill="#ffb000"/>
</svg>
